<?xml version="1.0" standalone="no"?>
<!DOCTYPE svg PUBLIC "-//W3C//DTD SVG 20010904//EN"
 "http://www.w3.org/TR/2001/REC-SVG-20010904/DTD/svg10.dtd">
<svg version="1.0" xmlns="http://www.w3.org/2000/svg"
 width="512.000000pt" height="512.000000pt" viewBox="0 0 512.000000 512.000000"
 preserveAspectRatio="xMidYMid meet">

<g transform="translate(0.000000,512.000000) scale(0.100000,-0.100000)"
fill="#000000" stroke="none">
<path d="M4112 4717 l-353 -353 12 -253 12 -253 -363 -363 -364 -364 -41 33
c-148 122 -336 209 -527 244 -46 9 -46 9 -52 -21 -16 -78 -13 -81 72 -99 145
-29 311 -111 417 -202 l40 -35 -206 -207 -207 -206 -64 31 c-175 87 -373 55
-509 -81 -114 -114 -159 -291 -109 -437 110 -325 506 -416 735 -169 132 142
159 330 72 500 l-34 66 207 207 208 207 52 -68 c90 -119 190 -357 190 -453 0
-23 20 -26 79 -15 39 8 40 29 6 150 -43 149 -122 301 -218 417 l-40 49 364
364 364 364 165 -10 c91 -5 205 -10 253 -11 l88 -3 354 354 c201 201 356 364
360 378 7 30 -17 70 -48 77 -12 3 -116 9 -230 13 -152 5 -210 11 -216 20 -4 7
-11 110 -14 228 -4 118 -11 224 -17 234 -8 14 -21 20 -48 20 -35 0 -53 -17
-390 -353z m336 -36 c7 -153 12 -196 25 -208 12 -13 55 -18 208 -25 106 -4
194 -10 195 -11 2 -2 -124 -130 -279 -285 l-282 -281 -204 9 c-112 5 -207 12
-211 17 -4 4 -12 100 -18 213 l-11 205 282 282 c155 155 282 281 284 279 1 -1
7 -89 11 -195z m-2027 -2102 l50 -22 -121 -122 c-125 -129 -136 -149 -100
-185 36 -36 56 -25 184 100 l123 120 24 -52 c52 -111 22 -265 -68 -355 -87
-87 -222 -116 -338 -72 -212 80 -274 360 -114 520 95 95 235 121 360 68z"/>
<path d="M1955 4518 c-2 -13 -20 -115 -39 -227 -20 -112 -37 -206 -40 -208 -2
-3 -39 -13 -81 -24 -104 -27 -207 -69 -346 -141 l-116 -59 -184 130 c-101 71
-188 130 -194 129 -5 0 -117 -103 -247 -230 l-238 -230 131 -194 131 -195 -70
-142 c-64 -128 -142 -333 -142 -372 0 -9 -10 -20 -22 -25 -17 -7 -422 -80
-445 -80 -2 0 -2 -154 -1 -342 l3 -341 221 -42 c121 -23 226 -45 232 -49 7 -4
12 -16 12 -26 0 -44 76 -245 142 -377 l71 -142 -132 -185 c-72 -101 -131 -188
-131 -193 0 -4 107 -114 237 -245 l236 -237 194 131 194 130 152 -75 c134 -67
320 -137 362 -137 9 0 20 -10 25 -22 7 -18 80 -419 80 -443 0 -3 154 -4 342
-3 l341 3 42 221 c23 121 45 226 49 232 4 7 14 12 22 12 38 0 273 88 391 147
l132 65 185 -131 c102 -72 189 -131 193 -131 4 0 114 106 245 237 l236 236
-130 195 -131 195 61 116 c68 130 124 267 143 354 7 32 17 61 23 65 6 3 108
22 226 42 l215 35 0 340 0 339 -228 40 -227 40 -10 40 c-39 152 -134 384 -203
494 l-28 43 -45 -32 c-25 -17 -44 -34 -42 -38 2 -4 28 -56 60 -116 76 -148
111 -239 144 -376 15 -63 28 -115 29 -117 1 -1 89 -18 196 -37 107 -19 204
-37 217 -40 l22 -5 0 -245 c0 -135 -2 -245 -3 -245 -7 0 -392 -70 -412 -74
-16 -4 -25 -24 -44 -98 -43 -168 -118 -342 -206 -480 l-43 -66 128 -189 129
-188 -171 -172 -172 -172 -110 77 c-61 42 -145 99 -185 128 l-75 51 -63 -38
c-144 -88 -305 -157 -468 -199 l-109 -28 -38 -209 c-21 -114 -40 -214 -43
-221 -3 -9 -62 -12 -244 -12 l-241 0 -5 23 c-3 12 -20 109 -40 215 -19 106
-37 197 -39 201 -3 4 -31 13 -63 21 -143 31 -382 133 -517 219 -28 17 -54 31
-59 31 -4 0 -91 -56 -192 -125 l-183 -125 -172 180 -172 180 119 172 c66 95
123 179 127 186 4 7 -7 37 -27 70 -87 144 -160 317 -202 478 -14 54 -27 99
-28 100 -1 2 -92 19 -202 39 -110 20 -208 38 -217 41 -17 5 -18 26 -18 248 l0
243 213 38 c116 20 215 40 219 44 4 3 19 50 32 103 41 157 100 293 198 455
l49 82 -119 173 c-65 95 -122 179 -126 187 -6 9 40 61 160 182 93 93 172 169
176 169 4 0 88 -56 187 -125 l180 -125 63 41 c130 84 359 178 515 210 l61 13
17 95 c10 53 27 150 39 216 l22 120 245 3 246 2 38 -215 c38 -210 40 -216 65
-221 144 -32 401 -133 510 -200 40 -24 73 -44 75 -44 5 0 55 80 55 89 0 13
-164 105 -269 151 -49 21 -134 53 -189 70 -90 29 -102 35 -106 59 -3 14 -19
107 -36 206 -17 99 -33 190 -35 203 l-5 22 -340 0 -340 0 -5 -22z"/>
<path d="M2230 3640 l0 -540 55 0 55 0 0 540 0 540 -55 0 -55 0 0 -540z"/>
<path d="M1990 3386 c-321 -86 -591 -311 -730 -609 -39 -82 -82 -216 -95 -294
l-7 -42 46 -6 c25 -4 51 -5 58 -2 7 2 19 35 26 72 70 369 403 703 780 782 42
9 78 18 80 19 2 1 0 25 -4 53 -6 49 -8 51 -38 51 -17 -1 -69 -11 -116 -24z"/>
<path d="M400 2285 l0 -55 540 0 540 0 0 55 0 55 -540 0 -540 0 0 -55z"/>
<path d="M3100 2285 l0 -55 538 2 537 3 3 53 3 52 -540 0 -541 0 0 -55z"/>
<path d="M3292 2088 c-31 -181 -128 -362 -272 -509 -163 -166 -330 -255 -571
-303 -25 -6 -26 -7 -18 -57 5 -28 10 -53 12 -56 8 -7 158 28 231 54 340 122
598 395 709 750 15 44 29 104 33 132 l7 51 -30 0 c-17 0 -44 3 -60 6 l-29 6
-12 -74z"/>
<path d="M1193 2143 c-38 -5 -37 -1 -18 -92 96 -459 456 -803 926 -886 l36 -7
7 52 c4 29 5 54 3 56 -2 2 -48 15 -103 29 -133 33 -295 114 -404 202 -192 156
-311 360 -365 626 -6 28 -8 29 -82 20z"/>
<path d="M2230 940 l0 -540 55 0 55 0 0 540 0 540 -55 0 -55 0 0 -540z"/>
</g>
</svg>
