<?xml version="1.0" standalone="no"?>
<!DOCTYPE svg PUBLIC "-//W3C//DTD SVG 20010904//EN"
 "http://www.w3.org/TR/2001/REC-SVG-20010904/DTD/svg10.dtd">
<svg version="1.0" xmlns="http://www.w3.org/2000/svg"
 width="186.000000pt" height="292.000000pt" viewBox="0 0 186.000000 292.000000"
 preserveAspectRatio="xMidYMid meet">

<g transform="translate(0.000000,292.000000) scale(0.100000,-0.100000)"
fill="#000000" stroke="none">
<path d="M873 2772 c-13 -8 -31 -307 -20 -335 3 -10 14 -13 31 -10 24 5 26 10
26 53 l0 48 47 16 c26 9 50 16 55 16 4 0 8 -33 8 -74 0 -73 0 -73 25 -68 25 4
25 4 27 133 4 246 6 224 -22 224 -24 0 -25 -3 -30 -74 -5 -74 -5 -74 -40 -87
-69 -25 -70 -24 -70 76 0 90 -5 102 -37 82z"/>
<path d="M631 2749 c-102 -20 -115 -26 -105 -53 5 -13 13 -16 33 -11 14 4 30
7 35 8 5 1 25 -65 43 -147 18 -82 35 -151 37 -154 3 -2 16 -2 29 2 l24 6 -24
107 c-48 214 -48 195 8 207 15 3 29 12 32 20 11 29 -17 33 -112 15z"/>
<path d="M1235 2736 c-2 -6 -18 -60 -35 -121 -17 -60 -38 -129 -45 -152 -16
-50 -10 -86 14 -79 9 3 52 10 95 16 44 6 80 11 81 13 1 1 19 63 39 137 l37
135 -22 18 c-12 10 -25 14 -29 10 -4 -4 -22 -62 -40 -128 -18 -66 -38 -123
-44 -127 -17 -12 -66 -9 -66 2 0 6 16 65 35 131 19 67 35 127 35 134 0 16 -50
27 -55 11z"/>
<path d="M396 2653 c-28 -59 19 -71 49 -13 13 25 13 28 -9 38 -21 9 -25 7 -40
-25z"/>
<path d="M1578 2623 c-16 -4 -59 -70 -137 -216 -57 -105 -52 -112 79 -103 101
7 126 20 116 61 -3 11 -9 30 -12 43 -6 19 -3 22 24 22 48 0 48 26 2 118 -23
45 -44 81 -48 81 -4 -1 -15 -3 -24 -6z m27 -103 c22 -43 19 -50 -25 -50 -22 0
-40 3 -40 6 0 9 40 74 46 74 2 0 10 -13 19 -30z m-28 -129 l11 -29 -47 -4
c-67 -6 -74 -2 -54 33 25 41 74 41 90 0z"/>
<path d="M223 2589 c-10 -17 -33 -38 -50 -48 l-33 -16 61 -90 c33 -50 71 -111
84 -137 30 -57 42 -65 63 -44 16 16 15 20 -9 65 l-25 48 27 39 c34 47 35 60 8
75 -18 9 -24 7 -37 -12 -10 -13 -20 -28 -25 -33 -7 -11 -57 39 -57 57 0 5 14
28 31 53 27 36 30 46 19 59 -19 23 -37 18 -57 -16z"/>
<path d="M426 2553 c-3 -3 6 -27 20 -54 13 -27 33 -74 45 -104 18 -49 23 -55
42 -49 12 3 24 8 26 10 10 9 -59 177 -79 189 -15 9 -47 14 -54 8z"/>
<path d="M870 2159 c-212 -23 -391 -150 -485 -344 -37 -75 -65 -195 -65 -272
1 -26 7 -79 14 -118 l14 -70 -29 -23 c-16 -13 -41 -47 -56 -75 -14 -29 -31
-55 -38 -59 -20 -12 -64 -103 -70 -145 -5 -33 -2 -43 26 -77 38 -45 82 -66
141 -66 64 0 238 -41 238 -56 0 -39 -6 -40 -160 -36 l-149 4 -10 -23 c-15 -35
-43 -198 -36 -209 9 -15 162 -59 265 -75 113 -19 360 -30 378 -17 17 12 55
212 42 227 -12 14 -127 49 -218 66 -64 12 -64 12 -58 42 3 16 6 33 6 37 0 5
12 13 28 18 15 6 20 11 11 11 -22 1 -43 27 -29 36 7 4 7 12 0 24 -5 10 -6 21
-3 25 14 13 -10 5 -35 -13 -42 -29 -93 -41 -132 -32 -23 6 -27 9 -13 10 41 2
33 19 -13 26 -26 3 -84 26 -130 50 -66 34 -81 39 -73 23 6 -11 24 -27 40 -36
36 -21 38 -36 4 -30 -34 7 -31 2 13 -21 l37 -20 -36 -1 c-34 0 -69 23 -69 45
0 5 -14 20 -30 34 -29 25 -30 28 -20 64 17 58 69 66 137 22 14 -9 27 -14 30
-12 11 11 -80 59 -103 54 -30 -5 -31 6 -1 30 12 10 29 34 37 52 19 48 66 98
112 122 21 11 38 26 38 34 0 42 127 136 182 135 20 -1 19 -3 -11 -19 -19 -10
-43 -33 -53 -52 -14 -25 -18 -28 -14 -11 4 20 2 21 -10 11 -8 -7 -22 -26 -29
-43 -8 -17 -22 -42 -32 -55 -17 -23 -17 -24 5 -17 12 4 30 3 39 -3 15 -9 16
-10 2 -11 -9 0 -37 -18 -63 -41 -39 -35 -46 -38 -46 -21 0 12 5 33 11 48 l10
28 -23 -19 c-37 -32 -47 -48 -48 -75 0 -19 -8 -29 -32 -39 l-33 -14 35 -6 c26
-4 41 -16 60 -44 13 -21 26 -34 28 -28 2 6 10 11 17 11 8 0 30 13 48 30 l34
29 11 -24 c6 -13 25 -31 42 -40 16 -8 30 -20 30 -26 0 -6 7 -6 20 1 16 8 20 8
20 -4 0 -33 127 -37 192 -7 24 11 38 20 31 21 -6 0 -19 8 -29 17 -16 17 -17
16 -12 -10 4 -23 2 -27 -18 -27 -30 0 -79 42 -72 62 3 8 31 28 61 44 62 32 67
38 19 25 -39 -12 -40 -3 -4 31 30 30 71 48 108 48 26 0 30 -11 14 -39 -7 -14
-5 -23 8 -34 15 -14 19 -14 39 2 15 12 18 22 12 32 -36 57 62 51 124 -9 35
-34 34 -43 -5 -31 -48 13 -43 7 19 -25 30 -16 58 -36 61 -44 7 -20 -42 -62
-72 -62 -20 0 -22 4 -18 27 5 26 4 27 -12 10 -10 -9 -23 -17 -29 -17 -24 -1
69 -39 96 -40 40 0 38 -38 -3 -47 -17 -3 -33 -10 -36 -14 -3 -5 -20 -9 -39 -9
-29 0 -32 3 -28 21 5 19 4 20 -16 8 -29 -19 -27 -26 12 -35 31 -7 32 -8 7 -15
-32 -9 -148 -9 -180 0 -25 7 -24 8 8 15 37 9 40 16 11 34 -19 12 -20 11 -14
-7 6 -19 2 -21 -29 -21 -19 0 -37 4 -40 9 -5 8 -56 22 -74 20 -4 -1 -6 -6 -4
-11 2 -6 0 -18 -4 -27 -10 -24 -12 -51 -2 -45 4 3 8 12 8 21 0 10 5 13 18 8
49 -19 145 -35 212 -35 67 0 163 16 213 35 12 5 17 2 17 -8 0 -9 4 -18 8 -21
9 -6 9 23 0 39 -3 6 -6 26 -6 46 -1 36 0 37 43 44 30 4 45 11 45 21 0 12 5 12
33 -2 19 -10 27 -11 20 -3 -10 10 -6 17 22 36 19 13 38 35 41 48 l6 24 24 -29
c14 -16 35 -32 47 -36 12 -4 25 -11 28 -16 3 -4 16 9 30 29 18 28 33 40 59 44
l35 6 -32 14 c-25 10 -33 20 -33 39 0 27 -10 43 -48 75 l-23 19 10 -28 c6 -15
11 -36 11 -48 0 -17 -7 -14 -46 21 -26 23 -54 41 -63 41 -14 1 -13 2 2 11 9 6
27 7 39 3 22 -7 22 -6 5 17 -9 13 -23 38 -30 54 -8 17 -21 36 -30 43 -13 11
-15 10 -10 -10 3 -16 -1 -13 -13 10 -9 18 -33 42 -53 52 -31 16 -33 19 -13 20
53 1 182 -92 182 -132 0 -10 16 -26 39 -37 45 -24 106 -91 116 -128 3 -14 17
-35 31 -45 30 -25 31 -37 0 -31 -25 5 -106 -39 -106 -57 0 -6 12 -1 28 10 67
50 125 43 141 -17 11 -36 9 -40 -19 -65 -16 -15 -30 -32 -30 -36 0 -19 -39
-42 -71 -42 l-34 1 38 20 c44 23 46 28 10 21 -27 -4 -26 -3 15 35 48 45 56 64
15 37 -53 -35 -118 -64 -175 -76 -56 -11 -69 -27 -25 -29 14 -1 10 -4 -13 -10
-39 -9 -90 3 -132 32 -29 21 -43 24 -33 9 4 -6 2 -17 -5 -25 -8 -9 -8 -15 0
-20 14 -9 -6 -35 -29 -36 -9 0 -4 -5 10 -10 20 -7 29 -19 34 -46 3 -19 5 -36
3 -38 -2 -1 -49 -12 -105 -24 -104 -22 -167 -43 -177 -60 -9 -14 33 -214 46
-223 61 -38 612 41 644 93 6 10 -23 175 -37 208 l-10 23 -149 -4 c-154 -4
-160 -3 -160 36 0 15 177 56 241 56 56 0 100 21 138 66 28 34 31 44 26 77 -6
45 -48 132 -69 144 -7 4 -24 30 -36 56 -12 26 -38 60 -56 75 l-34 28 15 70
c19 89 19 146 -1 242 -29 146 -113 282 -225 366 -82 62 -121 81 -211 105 -89
24 -153 29 -238 20z m56 -109 c-7 -78 -7 -80 14 -80 21 0 22 3 15 68 -4 37 -7
72 -8 77 -3 17 55 17 128 0 265 -64 448 -296 447 -566 0 -95 -8 -149 -22 -149
-5 0 -6 -8 -3 -17 6 -16 5 -16 -8 -3 -8 8 -23 29 -33 45 -11 17 -25 34 -33 38
-7 4 -13 15 -13 23 0 8 -4 12 -10 9 -24 -15 -6 18 47 86 l56 74 -56 -55 c-41
-39 -57 -49 -57 -37 0 10 -4 15 -10 12 -5 -3 -7 0 -4 9 3 8 -6 36 -20 63 -14
26 -26 55 -26 64 0 10 13 47 30 83 16 36 27 66 25 66 -2 0 -20 -30 -40 -66
l-37 -65 -47 44 c-26 25 -57 48 -69 51 -26 8 -25 3 -11 101 6 42 8 79 6 81 -3
3 -13 -28 -22 -68 -10 -40 -19 -76 -21 -79 -7 -12 -72 24 -83 45 -10 19 -11
18 -6 -8 4 -18 1 -32 -6 -37 -10 -6 -10 -11 0 -23 7 -9 17 -14 21 -11 16 10
19 -12 10 -56 -9 -42 -9 -43 -7 -6 2 20 -1 37 -5 37 -4 0 -8 -13 -8 -30 0 -19
-5 -30 -14 -30 -17 0 -27 47 -12 54 6 2 -6 5 -26 5 -42 1 -58 16 -27 26 19 6
20 9 6 22 -21 22 -78 28 -71 8 4 -10 0 -15 -12 -15 -13 -1 -10 -5 11 -15 20
-9 24 -14 13 -14 -10 -1 -18 -6 -18 -11 0 -7 -13 -8 -35 -4 l-36 6 3 -40 c3
-37 5 -41 25 -35 21 5 22 3 16 -27 -5 -30 -4 -32 16 -25 12 4 21 2 21 -4 0
-10 -13 -14 -26 -8 -3 1 -10 -6 -15 -15 -11 -19 3 -55 18 -50 4 1 9 -9 10 -23
2 -24 1 -24 -23 -9 -13 9 -28 30 -33 48 l-8 31 -11 -26 c-6 -15 -28 -35 -52
-47 l-41 -20 33 -10 c70 -21 76 -21 82 5 7 27 29 21 24 -6 -2 -10 3 -25 11
-35 7 -9 15 -29 17 -45 3 -25 -1 -30 -24 -36 -15 -3 -38 -14 -51 -24 -23 -18
-23 -18 35 -14 l59 4 -34 -19 -35 -19 70 1 c38 0 83 -3 99 -6 21 -5 15 0 -20
18 l-50 24 59 -3 c58 -4 58 -4 35 14 -13 10 -36 21 -51 24 -23 6 -27 11 -24
36 2 16 10 37 19 47 9 9 16 21 16 27 0 5 4 11 10 13 6 2 11 -3 11 -11 0 -16
12 -15 78 5 l33 10 -41 20 c-24 12 -46 32 -52 47 l-11 26 -8 -28 c-8 -30 -27
-57 -39 -57 -9 0 -20 62 -12 74 3 5 11 1 18 -8 12 -17 16 -15 27 17 4 11 3 16
-3 12 -32 -20 -79 70 -51 98 8 8 11 0 11 -30 0 -32 4 -42 20 -46 23 -6 24 -3
10 23 -8 15 -5 19 15 22 22 5 25 2 25 -23 0 -46 35 -94 78 -107 20 -7 51 -23
67 -36 26 -22 28 -25 10 -26 -11 -1 -33 -7 -49 -13 l-29 -13 34 -22 c43 -27
25 -28 -43 -2 -29 11 -66 20 -83 19 -26 0 -22 -3 25 -20 30 -11 82 -27 114
-35 68 -17 96 -30 96 -44 0 -6 -16 -10 -37 -10 -46 0 -38 -8 24 -25 46 -13 38
-19 -20 -15 -26 1 -27 0 -16 -24 9 -19 9 -32 1 -50 l-11 -25 -66 45 c-37 24
-72 44 -78 44 -7 0 2 -8 18 -19 85 -52 205 -241 153 -241 -7 0 -25 26 -40 58
-58 124 -140 182 -258 182 -118 0 -200 -58 -258 -182 -15 -32 -33 -58 -39 -58
-53 0 67 189 152 241 17 11 25 19 18 19 -6 0 -41 -20 -78 -44 l-66 -45 -11 25
c-8 18 -8 31 1 50 11 24 10 25 -16 24 -58 -4 -66 2 -20 15 62 17 70 25 24 25
-21 0 -37 4 -37 10 0 14 28 27 96 44 32 8 84 24 114 35 47 17 51 20 25 20 -16
1 -54 -8 -83 -19 -68 -26 -86 -25 -43 2 l34 22 -29 13 c-16 6 -38 12 -49 13
-18 1 -16 4 10 26 17 13 47 30 69 36 23 7 42 21 49 35 5 13 14 23 19 23 10 0
10 40 2 104 -8 55 -21 62 -17 9 2 -37 2 -36 -7 6 -9 44 -6 66 10 56 4 -3 14 2
21 11 10 12 10 17 0 23 -7 5 -10 19 -6 37 5 27 5 28 -6 7 -7 -13 -18 -23 -26
-23 -7 0 -13 -4 -13 -9 0 -4 -10 -8 -22 -7 -19 1 -25 11 -40 64 -30 111 -32
104 -12 -44 6 -48 5 -52 -17 -59 -12 -4 -44 -27 -70 -52 l-47 -44 -37 65 c-20
36 -38 66 -40 66 -2 0 9 -30 25 -66 17 -36 30 -73 30 -82 0 -10 -14 -44 -30
-76 -17 -32 -30 -66 -30 -75 0 -9 -22 6 -57 39 l-56 55 56 -74 57 -73 -40 -52
c-69 -88 -73 -93 -67 -74 3 9 2 18 -4 20 -15 5 -27 106 -22 183 12 195 134
384 307 476 68 37 172 68 230 68 l39 1 -7 -80z m-141 -270 c3 -6 -1 -7 -9 -4
-18 7 -21 14 -7 14 6 0 13 -4 16 -10z m2 -35 c0 -8 -4 -12 -9 -9 -5 3 -6 10
-3 15 9 13 12 11 12 -6z m151 -20 c-1 -19 -7 -35 -14 -35 -15 0 -24 58 -10 64
23 9 27 5 24 -29z m-103 -173 c-10 -10 -16 -12 -13 -7 3 6 8 19 13 30 5 14 9
16 12 7 3 -8 -3 -21 -12 -30z m218 7 c4 -16 3 -18 -9 -8 -16 13 -19 29 -5 29
5 0 11 -9 14 -21z m337 -23 c0 -2 -8 -10 -17 -17 -16 -13 -17 -12 -4 4 13 16
21 21 21 13z m-685 -456 c-3 -5 -13 -10 -21 -10 -8 0 -14 5 -14 10 0 6 9 10
21 10 11 0 17 -4 14 -10z m505 0 c0 -5 -6 -10 -14 -10 -8 0 -18 5 -21 10 -3 6
3 10 14 10 12 0 21 -4 21 -10z m-614 -257 c-14 -69 -42 -90 -31 -22 10 58 23
91 34 85 4 -3 3 -31 -3 -63z m713 6 c14 -64 14 -72 -1 -67 -13 5 -39 113 -30
122 11 11 21 -7 31 -55z m-814 -63 c43 -22 105 -41 160 -51 50 -9 106 -20 125
-25 l35 -8 -38 -1 c-104 -3 -385 43 -462 75 -62 25 -42 41 55 43 44 1 69 -6
125 -33z m1095 24 c17 -10 15 -12 -25 -33 -64 -32 -351 -79 -469 -76 l-41 1
35 8 c19 5 76 16 125 25 57 10 114 28 155 49 54 28 76 34 135 35 39 0 77 -3
85 -9z m-1213 -88 c17 -11 4 -52 -16 -52 -29 0 -44 16 -36 39 6 21 30 27 52
13z m1165 -7 c0 -8 1 -20 2 -27 1 -6 -11 -15 -26 -19 -16 -4 -28 -4 -28 -1 0
4 -3 17 -6 29 -4 15 -1 22 13 26 34 9 43 7 45 -8z m-870 -44 c4 -3 5 -16 2
-29 -6 -20 -10 -21 -63 -16 -66 8 -72 12 -65 42 6 20 10 21 63 16 31 -4 59 -9
63 -13z m650 -6 c6 -31 7 -31 -64 -39 -52 -7 -57 -6 -63 14 -9 30 2 38 55 43
25 2 50 4 56 5 7 1 14 -9 16 -23z m-458 -7 c-10 -32 -22 -38 -83 -38 -44 0
-52 3 -47 16 3 9 6 20 6 24 0 8 25 12 108 18 20 2 22 -1 16 -20z m244 12 c17
0 22 -6 22 -25 0 -23 -4 -25 -42 -25 -51 0 -63 7 -73 39 -7 23 -6 24 31 18 22
-4 49 -7 62 -7z m-760 -26 c14 -4 22 -14 22 -28 0 -30 -6 -34 -35 -28 -20 3
-25 10 -25 33 0 31 2 32 38 23z m1212 -28 c0 -16 -7 -26 -22 -30 -36 -9 -38
-8 -38 23 0 23 5 30 23 33 30 5 37 1 37 -26z m-924 -22 c27 -4 31 -8 26 -29
-5 -27 -22 -30 -94 -19 -31 5 -38 11 -38 29 0 12 2 24 5 27 5 4 38 2 101 -8z
m215 -21 c-6 -24 -14 -29 -60 -37 -58 -10 -73 -3 -65 31 5 18 15 23 58 26 28
2 56 4 63 5 8 1 9 -7 4 -25z m289 -15 l0 -30 -47 7 c-59 9 -63 11 -63 38 0 20
4 22 55 19 54 -4 55 -5 55 -34z m195 21 c9 -28 6 -29 -60 -36 -43 -5 -59 -3
-66 8 -22 35 -6 45 78 48 34 1 43 -3 48 -20z"/>
<path d="M1191 2034 c0 -11 3 -14 6 -6 3 7 2 16 -1 19 -3 4 -6 -2 -5 -13z"/>
<path d="M922 1156 c-6 -14 -17 -26 -24 -26 -7 0 -3 -7 9 -15 12 -8 24 -25 26
-38 l4 -22 2 22 c0 12 11 29 23 37 12 9 17 16 11 16 -7 0 -18 12 -26 26 l-13
25 -12 -25z"/>
<path d="M400 1081 c0 -9 30 -24 36 -18 2 1 -6 8 -16 15 -11 7 -20 8 -20 3z"/>
<path d="M1456 1074 c-11 -8 -16 -14 -10 -14 13 0 39 18 34 24 -3 2 -14 -2
-24 -10z"/>
<path d="M552 1060 c-7 -11 -8 -20 -3 -20 9 0 24 30 18 36 -1 2 -8 -6 -15 -16z"/>
<path d="M585 1040 c-16 -18 -16 -20 -2 -14 22 8 22 -12 0 -25 -10 -6 -13 -11
-7 -11 5 0 19 6 29 14 15 11 17 18 9 36 l-9 22 -20 -22z"/>
<path d="M1264 1038 c-6 -21 16 -48 40 -48 6 0 3 5 -6 11 -23 13 -23 33 -1 25
15 -6 15 -4 -2 14 -22 25 -22 25 -31 -2z"/>
<path d="M1320 1050 c0 -5 5 -10 11 -10 5 0 7 5 4 10 -3 6 -8 10 -11 10 -2 0
-4 -4 -4 -10z"/>
<path d="M121 386 c-65 -36 -69 -151 -6 -192 21 -14 33 -15 60 -7 l33 11 4
-39 c5 -50 -6 -79 -30 -79 -45 0 -54 55 -10 62 21 4 22 5 4 13 -41 18 -71 -31
-40 -66 22 -24 55 -24 85 -1 19 16 23 31 27 105 4 69 2 87 -9 87 -8 0 -22 -18
-31 -40 -32 -76 -98 -42 -98 51 0 55 29 99 65 99 30 0 48 -23 40 -51 -5 -15
-3 -20 6 -17 24 8 22 45 -3 62 -27 19 -64 20 -97 2z"/>
<path d="M618 384 c-39 -20 -53 -91 -21 -101 8 -3 10 6 6 30 -5 35 14 67 43
67 11 0 14 -23 14 -120 0 -100 3 -120 15 -120 12 0 15 14 15 65 0 58 2 65 20
65 11 0 20 5 20 10 0 6 -9 10 -20 10 -17 0 -20 7 -20 45 0 45 0 45 28 38 48
-13 76 -9 80 10 3 15 -5 17 -75 17 -49 -1 -88 -6 -105 -16z"/>
<path d="M1023 381 c-33 -21 -41 -48 -27 -85 11 -29 20 -17 16 21 -5 41 14 63
55 63 23 0 23 -1 23 -120 0 -100 3 -120 15 -120 12 0 15 19 15 115 l0 115 38
-6 c28 -4 41 -2 51 10 12 14 10 16 -11 16 -14 0 -52 3 -84 6 -49 4 -65 2 -91
-15z"/>
<path d="M1417 383 c-4 -3 -7 -21 -7 -40 0 -30 -2 -33 -24 -27 -18 4 -32 -2
-57 -27 -31 -30 -33 -31 -45 -13 -36 52 -61 58 -94 22 -19 -21 -25 -47 -21
-98 2 -27 34 -60 57 -60 24 0 54 38 54 68 0 26 15 52 30 52 3 0 4 -15 2 -33
-2 -22 3 -41 18 -60 25 -31 46 -34 72 -10 10 9 18 11 18 5 0 -19 40 -25 59 -8
16 15 19 15 31 1 16 -19 44 -19 60 0 11 14 15 14 32 -2 16 -14 22 -15 39 -4
16 9 24 9 35 0 8 -7 25 -8 41 -4 l28 7 -25 -29 c-14 -15 -18 -22 -10 -15 20
17 28 15 32 -10 2 -13 8 -23 13 -23 6 0 11 49 13 123 2 104 0 122 -13 122 -12
0 -15 -14 -15 -67 0 -75 -10 -99 -34 -90 -13 5 -16 22 -16 82 0 57 -3 75 -14
75 -10 0 -15 -19 -18 -70 -6 -120 -48 -125 -48 -5 l0 73 -42 -3 c-24 -1 -46
-3 -50 -4 -14 -2 -31 -45 -37 -95 -4 -36 -10 -51 -21 -51 -12 0 -16 20 -18
113 -2 103 -7 123 -25 105z m-154 -90 c4 -3 2 -12 -4 -19 -7 -8 -7 -14 1 -19
14 -9 13 -68 -2 -83 -17 -17 -45 -15 -52 4 -9 25 -7 83 4 105 10 19 40 26 53
12z m145 -42 c5 -63 -4 -91 -28 -91 -26 0 -43 43 -34 84 15 71 57 76 62 7z
m170 0 c5 -63 -4 -91 -28 -91 -26 0 -43 43 -34 84 15 71 57 76 62 7z"/>
<path d="M414 359 c-3 -6 -6 -45 -5 -86 2 -83 -13 -113 -54 -113 -44 0 -61 44
-20 54 55 14 68 90 17 103 -59 15 -100 -109 -52 -157 25 -25 50 -25 83 0 l25
20 14 -22 c10 -16 20 -19 34 -14 18 7 18 8 2 17 -15 8 -18 24 -18 79 0 57 3
69 18 73 16 4 16 5 0 6 -12 1 -18 9 -18 26 0 26 -14 33 -26 14z m-46 -81 c3
-17 -30 -58 -48 -58 -13 0 -13 21 0 55 11 29 43 31 48 3z"/>
<path d="M844 357 c-2 -7 -6 -50 -7 -95 -2 -79 -14 -111 -36 -98 -6 4 -11 39
-11 82 0 59 -3 74 -15 74 -12 0 -15 -15 -15 -71 0 -39 5 -79 10 -90 12 -21 40
-25 57 -8 8 8 17 7 31 -2 12 -7 25 -9 29 -5 4 5 2 11 -4 13 -9 3 -13 28 -13
78 0 49 4 75 13 78 10 4 10 6 0 6 -7 1 -13 12 -13 26 0 26 -17 34 -26 12z"/>
<path d="M1700 72 c6 -13 14 -21 18 -18 3 4 -2 14 -12 24 -18 16 -18 16 -6 -6z"/>
</g>
</svg>
